<?xml version="1.0" standalone="no"?>
<!DOCTYPE svg PUBLIC "-//W3C//DTD SVG 20010904//EN"
 "http://www.w3.org/TR/2001/REC-SVG-20010904/DTD/svg10.dtd">
<svg version="1.0" xmlns="http://www.w3.org/2000/svg"
 width="294.000000pt" height="190.000000pt" viewBox="0 0 294.000000 190.000000"
 preserveAspectRatio="xMidYMid meet">

<g transform="translate(0.000000,190.000000) scale(0.100000,-0.100000)"
fill="#000000" stroke="none">
<path d="M1464 1887 c-3 -8 -4 -45 -2 -83 3 -61 5 -69 23 -69 18 0 20 7 20 80
0 68 -3 80 -18 83 -9 2 -20 -3 -23 -11z"/>
<path d="M1180 1801 c0 -20 32 -82 58 -113 19 -22 38 -23 46 -2 10 25 -55 128
-82 132 -16 3 -22 -2 -22 -17z"/>
<path d="M1727 1783 c-40 -64 -47 -81 -41 -97 13 -34 41 -15 82 57 28 49 29
77 2 77 -12 0 -29 -15 -43 -37z"/>
<path d="M1308 1623 c-21 -25 -78 -121 -78 -132 0 -5 40 -42 90 -82 l89 -74
-72 -17 c-195 -48 -354 -174 -441 -348 -49 -99 -76 -200 -76 -285 0 -49 -1
-51 -48 -81 -82 -55 -121 -74 -162 -80 -32 -5 -41 -3 -46 11 -5 11 -1 21 9 26
9 5 22 15 29 23 7 7 18 15 23 17 6 2 40 24 77 47 90 58 102 95 34 107 -83 16
-164 -38 -212 -140 -24 -51 -26 -59 -13 -83 23 -45 49 -62 95 -62 43 0 128 38
190 85 l30 23 13 -61 c7 -34 31 -100 53 -147 57 -119 177 -239 298 -298 194
-95 397 -95 590 -1 120 59 241 180 298 300 22 46 44 101 47 122 7 33 25 53 25
26 0 -24 43 -49 85 -49 49 0 144 45 204 97 22 18 42 33 45 33 3 0 -2 -16 -10
-36 -17 -40 -15 -85 2 -91 6 -2 27 13 45 33 97 108 151 161 178 177 30 17 31
17 31 0 0 -10 -19 -29 -46 -45 -46 -28 -65 -55 -47 -67 6 -3 17 -20 26 -36 8
-17 24 -39 36 -49 19 -17 25 -18 60 -6 21 7 54 26 72 42 19 16 48 40 65 54 28
22 52 74 35 74 -3 0 -39 -25 -80 -55 -41 -30 -79 -55 -86 -55 -12 0 -35 23
-49 47 -4 7 11 22 39 39 51 29 65 49 65 92 0 20 -7 32 -24 42 -37 19 -79 -2
-160 -83 -38 -37 -70 -66 -73 -63 -10 9 50 120 99 184 81 106 122 218 94 257
-24 33 -52 0 -127 -152 -41 -82 -94 -172 -120 -204 -66 -79 -196 -163 -269
-175 -32 -5 -41 -3 -46 11 -5 11 -1 21 9 26 9 5 22 15 29 23 7 7 18 15 23 17
6 2 40 24 77 47 90 58 102 95 34 107 -72 14 -158 -34 -200 -111 l-15 -29 -1
60 c-1 95 -26 193 -76 295 -87 174 -252 305 -443 349 l-70 16 89 74 c50 40 90
77 90 82 0 11 -57 107 -78 132 -13 15 -35 17 -177 17 -142 0 -164 -2 -177 -17z
m79 -65 c33 -31 29 -38 -22 -38 -47 0 -53 7 -33 40 16 25 26 25 55 -2z m133
19 c0 -2 -8 -11 -18 -21 -18 -15 -20 -15 -37 4 -18 20 -18 20 18 20 21 0 37
-2 37 -3z m116 -14 c24 -32 17 -43 -31 -43 -25 0 -45 3 -45 7 0 11 42 53 53
53 5 0 16 -8 23 -17z m-180 -107 c3 -8 4 -30 2 -50 l-3 -37 -50 42 c-27 22
-51 45 -53 50 -2 5 19 9 47 9 35 0 53 -5 57 -14z m162 5 c-1 -5 -25 -28 -53
-50 l-50 -42 -3 37 c-5 57 1 64 59 64 28 0 49 -4 47 -9z m62 -215 c192 -67
345 -233 395 -431 19 -75 19 -211 0 -293 -50 -211 -236 -397 -447 -447 -208
-49 -417 11 -569 164 -123 123 -179 257 -179 431 0 237 133 449 345 549 53 24
82 34 170 55 53 13 213 -3 285 -28z m-993 -554 c-38 -39 -87 -67 -87 -49 0 17
25 40 65 61 44 23 52 19 22 -12z m1630 0 c-38 -39 -87 -67 -87 -49 0 17 25 40
65 61 44 23 52 19 22 -12z"/>
<path d="M1335 1201 c-183 -52 -317 -188 -385 -390 -41 -122 -11 -316 68 -437
198 -302 608 -349 855 -98 21 21 36 45 35 53 -6 29 -37 23 -74 -15 -35 -35
-120 -94 -135 -94 -4 0 13 35 37 78 25 42 59 114 76 159 28 74 35 84 80 113
27 18 59 42 70 54 l20 21 -7 -50 c-4 -27 -18 -78 -32 -113 -25 -64 -25 -92 1
-92 22 0 44 37 68 115 26 83 29 211 9 295 -48 192 -208 355 -397 404 -80 21
-212 19 -289 -3z m225 -41 c88 -14 193 -66 263 -129 31 -29 57 -57 57 -62 0
-5 -29 -27 -65 -49 -83 -53 -151 -133 -209 -245 -63 -123 -59 -171 15 -190 21
-5 35 1 71 32 24 21 61 59 82 86 21 26 46 52 57 57 33 18 -29 -107 -77 -154
-101 -100 -160 -209 -151 -279 l6 -45 -37 -6 c-155 -25 -321 27 -432 136 -43
42 -110 139 -110 159 0 11 58 81 153 183 51 54 94 102 97 105 13 17 98 80 128
95 l34 17 -8 -23 c-4 -13 -17 -39 -29 -58 -51 -82 -107 -212 -101 -236 10 -39
49 -58 89 -45 49 17 117 70 117 92 0 10 -3 19 -6 19 -3 0 -30 -20 -61 -45 -61
-50 -73 -54 -73 -25 0 20 62 151 114 240 41 71 31 110 -26 110 -35 0 -128 -58
-177 -109 -20 -21 -56 -56 -81 -77 l-45 -39 33 41 c17 23 32 44 32 47 0 4 11
23 25 43 19 28 22 40 14 55 -21 40 -74 35 -187 -18 -29 -14 -55 -23 -58 -21
-2 3 10 34 28 69 65 131 217 244 358 268 76 12 86 12 160 1z m356 -272 c-5
-24 -2 -31 14 -35 23 -6 38 -50 47 -140 5 -51 3 -63 -9 -63 -8 0 -33 -14 -56
-31 -23 -17 -42 -28 -42 -25 0 3 12 31 26 63 40 89 44 108 27 132 -8 12 -18
21 -23 21 -5 0 -25 -24 -44 -52 -34 -51 -47 -67 -133 -161 -45 -51 -99 -90
-112 -83 -25 16 40 161 113 253 55 69 172 167 188 157 6 -4 7 -20 4 -36z
m-726 -35 c0 -5 -23 -39 -50 -78 -27 -38 -68 -101 -91 -138 -52 -84 -63 -75
-57 50 3 80 5 86 33 109 48 39 165 79 165 57z m566 -415 c-46 -108 -96 -206
-110 -217 -14 -12 -16 -10 -16 20 1 43 45 135 90 188 42 49 55 52 36 9z"/>
<path d="M271 1051 c-11 -11 -50 -81 -87 -157 -45 -91 -87 -161 -126 -207 -41
-50 -56 -73 -48 -81 7 -7 16 -7 30 1 18 12 18 11 -1 -33 -21 -47 -22 -95 -3
-101 6 -2 27 13 45 33 97 108 151 161 178 177 30 17 31 17 31 0 0 -10 -19 -29
-46 -45 -46 -28 -65 -55 -47 -67 6 -3 17 -20 26 -36 8 -17 24 -39 36 -49 19
-17 25 -18 60 -6 21 7 54 26 72 42 19 16 48 40 65 54 28 22 52 74 35 74 -3 0
-39 -25 -80 -55 -41 -30 -79 -55 -86 -55 -12 0 -35 23 -49 47 -4 7 11 22 39
39 51 29 65 49 65 92 0 20 -7 32 -24 42 -37 19 -79 -2 -160 -83 -38 -37 -70
-66 -73 -63 -9 9 49 120 97 182 63 82 88 131 99 192 14 72 -9 102 -48 63z"/>
</g>
</svg>
