<?xml version="1.0" standalone="no"?>
<!DOCTYPE svg PUBLIC "-//W3C//DTD SVG 20010904//EN"
 "http://www.w3.org/TR/2001/REC-SVG-20010904/DTD/svg10.dtd">
<svg version="1.0" xmlns="http://www.w3.org/2000/svg"
 width="294.000000pt" height="190.000000pt" viewBox="0 0 294.000000 190.000000"
 preserveAspectRatio="xMidYMid meet">
<metadata>
Created by potrace 1.16, written by Peter Selinger 2001-2019
</metadata>
<g transform="translate(0.000000,190.000000) scale(0.100000,-0.100000)"
fill="#000000" stroke="none">
<path d="M0 1264 l0 -636 52 63 c32 37 85 125 133 218 66 129 84 157 104 159
30 5 41 -12 41 -61 0 -49 -36 -123 -105 -216 -46 -61 -95 -148 -95 -168 0 -2
25 23 56 56 31 34 60 61 66 61 5 0 16 7 24 15 32 31 114 10 114 -29 0 -39 -25
-78 -66 -102 -24 -14 -44 -29 -44 -33 0 -5 9 -16 20 -26 24 -22 40 -16 120 44
56 42 80 51 80 29 0 -26 -13 -58 -22 -58 -5 0 -33 -20 -62 -45 -93 -79 -146
-87 -182 -28 -9 15 -25 40 -34 54 -23 32 -13 51 45 85 25 14 45 30 45 36 0 5
-14 1 -31 -9 -27 -16 -63 -52 -185 -186 -21 -22 -29 -25 -45 -17 -23 13 -24
38 -4 87 19 44 19 43 -5 43 -20 0 -20 -7 -20 -300 l0 -300 678 0 677 0 -81 28
c-107 38 -186 87 -261 164 -83 86 -136 171 -169 277 l-28 88 -36 -21 c-19 -11
-37 -23 -40 -26 -3 -4 -30 -16 -60 -27 -69 -27 -127 -23 -152 9 -41 54 -42 63
-17 115 53 112 108 153 205 153 59 0 80 -17 62 -54 -8 -18 -83 -73 -184 -136
-13 -8 -24 -21 -24 -29 0 -27 80 -4 164 47 l81 50 6 98 c4 55 14 118 22 142
83 221 254 385 459 438 34 9 69 18 77 20 7 2 -23 34 -73 75 -47 40 -86 75 -86
80 0 4 19 40 42 78 l43 71 180 0 180 0 43 -71 c23 -38 42 -74 42 -78 0 -5 -39
-40 -86 -80 -50 -41 -80 -73 -73 -75 8 -2 43 -11 77 -20 171 -44 326 -171 411
-335 53 -103 71 -170 71 -264 l0 -80 37 47 c43 56 86 76 159 76 59 0 80 -17
62 -54 -8 -18 -83 -73 -184 -136 -13 -8 -24 -21 -24 -29 0 -27 79 -4 162 46
113 68 166 133 263 322 66 129 84 157 104 159 30 5 41 -12 41 -61 0 -49 -36
-123 -105 -216 -46 -61 -95 -148 -95 -168 0 -2 25 23 56 56 31 34 60 61 66 61
5 0 16 7 24 15 32 31 114 10 114 -29 0 -39 -25 -78 -66 -102 -24 -14 -44 -29
-44 -33 0 -5 9 -16 20 -26 24 -22 40 -16 120 44 30 22 60 41 67 41 10 0 13
125 13 625 l0 625 -712 0 -713 0 3 -79 c3 -70 1 -81 -16 -90 -14 -7 -24 -7
-36 2 -15 11 -17 26 -14 90 l3 77 -727 0 -728 0 0 -636z m1255 517 c13 -27 29
-52 35 -56 17 -10 11 -44 -9 -55 -29 -15 -44 -5 -79 56 -44 76 -43 104 4 104
18 0 30 -12 49 -49z m543 23 c3 -24 -55 -131 -76 -139 -33 -13 -72 42 -42 60
6 4 22 29 36 56 22 44 28 50 52 47 18 -2 28 -10 30 -24z"/>
<path d="M1342 1558 c-20 -20 -14 -28 25 -28 35 0 36 0 18 20 -21 23 -27 24
-43 8z"/>
<path d="M1475 1560 c4 -6 11 -8 16 -5 14 9 11 15 -7 15 -8 0 -12 -5 -9 -10z"/>
<path d="M1585 1550 c-18 -20 -17 -20 18 -20 39 0 45 8 25 28 -16 16 -22 15
-43 -8z"/>
<path d="M1400 1425 c23 -19 44 -35 46 -35 2 0 4 16 4 35 0 35 0 35 -46 35
l-46 0 42 -35z"/>
<path d="M1520 1425 c0 -19 2 -35 4 -35 2 0 23 16 46 35 l42 35 -46 0 c-46 0
-46 0 -46 -35z"/>
<path d="M1350 1254 c-267 -58 -465 -310 -464 -589 1 -160 55 -291 167 -412
115 -123 260 -185 432 -185 172 0 317 62 432 185 112 121 166 252 167 412 1
163 -61 312 -179 430 -144 145 -349 203 -555 159z m303 -48 c189 -60 342 -235
384 -441 20 -100 8 -210 -34 -312 -26 -62 -31 -68 -58 -68 -24 0 -31 5 -33 23
-2 13 1 28 6 35 13 16 52 144 52 171 0 11 -4 17 -8 11 -4 -5 -29 -26 -57 -45
-57 -39 -71 -55 -80 -90 -10 -41 -57 -142 -90 -195 -17 -27 -35 -56 -40 -64
-14 -24 53 20 117 77 63 56 78 61 99 36 19 -23 -6 -59 -85 -120 -347 -266
-840 -58 -898 380 -14 103 6 209 58 316 65 130 215 257 344 288 25 6 54 14 65
16 38 9 210 -3 258 -18z"/>
<path d="M1381 1144 c-36 -7 -90 -26 -120 -41 -95 -47 -207 -176 -235 -270 -6
-20 -3 -20 71 13 91 40 156 45 173 15 15 -29 13 -34 -27 -92 -40 -58 -24 -52
42 16 77 80 165 120 219 99 27 -11 18 -54 -30 -137 -54 -93 -94 -176 -94 -195
0 -15 34 7 83 52 33 30 57 34 57 8 0 -33 -96 -102 -140 -102 -40 0 -70 27 -70
62 0 31 36 110 96 209 19 31 34 60 34 63 0 9 -57 -23 -105 -59 -35 -26 -167
-164 -266 -278 l-33 -39 20 -36 c27 -52 117 -145 172 -180 71 -45 170 -72 261
-71 90 1 128 10 122 30 -24 82 9 163 113 275 68 74 126 177 86 151 -11 -6 -20
-16 -20 -22 0 -6 -28 -39 -63 -73 -72 -71 -107 -80 -147 -37 -18 19 -22 31
-17 61 8 45 80 192 113 227 13 14 24 29 24 32 0 9 81 79 126 109 24 15 44 32
44 36 0 17 -109 106 -161 133 -58 29 -172 57 -229 56 -19 0 -64 -7 -99 -15z"/>
<path d="M1837 876 c-97 -80 -195 -225 -217 -323 -9 -36 7 -45 30 -18 7 8 18
15 24 15 6 0 20 12 31 27 11 15 39 49 63 77 24 28 59 75 78 104 38 56 66 67
84 32 12 -23 8 -41 -26 -118 -13 -29 -24 -55 -24 -57 0 -2 16 7 36 20 20 14
41 25 45 25 14 0 10 82 -6 137 -10 35 -21 52 -35 56 -16 4 -19 11 -14 36 9 42
-4 40 -69 -13z"/>
<path d="M1118 824 c-44 -16 -88 -42 -105 -64 -13 -16 -18 -171 -7 -183 4 -4
33 33 65 81 32 48 75 108 95 135 35 45 35 47 12 46 -12 -1 -40 -7 -60 -15z"/>
<path d="M1720 429 c-19 -23 -45 -64 -57 -93 -23 -54 -30 -102 -13 -91 9 6 60
108 60 121 0 3 8 18 18 32 16 22 35 72 28 72 -1 0 -17 -19 -36 -41z"/>
<path d="M654 691 c-32 -20 -49 -39 -42 -47 3 -2 22 12 44 31 44 39 43 44 -2
16z"/>
<path d="M2284 691 c-32 -20 -49 -39 -42 -47 3 -2 22 12 44 31 44 39 43 44 -2
16z"/>
<path d="M2684 662 c-21 -16 -63 -55 -92 -88 -105 -117 -102 -115 -123 -104
-23 13 -24 38 -4 86 l15 36 -35 -31 c-20 -17 -40 -31 -45 -31 -5 0 -15 -6 -22
-13 -7 -7 -38 -22 -68 -34 -67 -26 -127 -23 -151 8 -15 20 -16 19 -38 -43 -35
-97 -78 -165 -154 -245 -82 -86 -159 -136 -271 -175 l-81 -28 663 0 662 0 -1
308 c-1 169 -3 299 -6 290 -2 -10 -9 -18 -15 -18 -5 0 -33 -20 -62 -45 -93
-79 -146 -87 -182 -28 -9 15 -25 40 -34 54 -23 32 -13 51 45 85 25 14 45 30
45 35 0 13 -3 12 -46 -19z"/>
</g>
</svg>
